<?xml version="1.0" encoding="utf-8"?>
<!-- Generator: Adobe Illustrator 19.0.0, SVG Export Plug-In . SVG Version: 6.00 Build 0)  -->
<svg version="1.1" id="Layer_1" xmlns="http://www.w3.org/2000/svg" xmlns:xlink="http://www.w3.org/1999/xlink" x="0px" y="0px"
	 viewBox="0 0 500 500" style="enable-background:new 0 0 500 500;" xml:space="preserve">
<style type="text/css">
	.st0{fill:#FFFFFF;}
	.st1{fill:#CC0000;}
</style>
<g id="XMLID_1_">
	<rect id="XMLID_2_" x="67.5" y="173.9" width="365" height="152.1"/>
	<rect id="XMLID_3_" x="119.2" y="221.8" class="st0" width="56.4" height="56.4"/>
	<path id="XMLID_4_" class="st1" d="M183.3,249.9L183.3,249.9c0-5.6,0.2-10.5,4.3-19.3c1.2-2.5,3.8-6.3,0-10.6
		c-3.1-3.1-6.7-2.6-9.1-1.2c1.4-2.4,1.9-6-1.2-9.1c-4.3-3.9-8-1.2-10.6-0.1c-8.7,4.1-13.7,4.4-19.3,4.4h0c-5.6,0-10.5-0.2-19.3-4.4
		c-2.5-1.2-6.3-3.8-10.6,0.1c-3.1,3.1-2.6,6.7-1.2,9.1c-2.4-1.4-6-1.9-9.1,1.2c-3.9,4.3-1.2,8,0,10.6c4.1,8.7,4.3,13.7,4.3,19.3
		c0,5.6-0.2,10.5-4.3,19.3c-1.2,2.5-3.8,6.3,0,10.6c3.1,3.1,6.7,2.6,9.1,1.2c-1.4,2.4-1.9,6,1.2,9.1c4.3,3.9,8,1.2,10.6,0
		c8.7-4.1,13.7-4.3,19.3-4.3c5.6,0,10.5,0.2,19.3,4.3c2.5,1.2,6.3,3.8,10.6,0c3.1-3.2,2.6-6.7,1.2-9.1c2.4,1.4,6,1.9,9.1-1.2
		c3.9-4.3,1.2-8,0-10.6C183.5,260.5,183.3,255.5,183.3,249.9z M173.7,276.4l-20.5-17.2c0,0-2.8-2.7-5.9-2.7c-3.1,0-5.9,2.7-5.9,2.7
		L121,276.4l-0.1-0.1l17.2-20.5c0,0,2.7-2.8,2.7-5.9c0-3.1-2.7-5.9-2.7-5.9l-17.2-20.5l0.1-0.1l20.5,17.2c0,0,2.8,2.7,5.9,2.7
		c3.1,0,5.9-2.7,5.9-2.7l20.5-17.2l0.1,0.1l-17.2,20.5c0,0-2.7,2.8-2.7,5.9c0,3.1,2.7,5.9,2.7,5.9L173.7,276.4L173.7,276.4z"/>
	<path id="XMLID_7_" class="st0" d="M389.3,212.6l0.7,0l0.3,13.4l-0.8,0c-1.3-5.4-6.6-10.6-17.1-11.1c-12.4-0.6-17.8,6.8-17.9,13.7
		c-0.1,9.3,7.2,11.2,17.9,13.9c5.1,1.2,23.9,3.7,22.4,24.8c-1,14.7-13.8,21.8-31.8,21.2c0,0-7.5-0.3-17.9-3.2
		c-2-0.5-2.4,0.1-3.2,1.5l-0.8,0l0-14.5l0.8,0.1c0.4,1.5,0.5,4.2,3.2,6.5c2,1.7,6.5,5.9,16.4,6c9.8,0.1,17.9-4,19-14.9
		c0.3-3,0-9.7-6.6-12.8c-5.2-2.4-19.5-4-26.4-10.1c0,0-8.2-5.7-6.9-16.4c1.8-15.1,14.4-18.9,25.8-19.1c0,0,10.2-0.1,18.2,2
		c0,0,2,0.5,3.7-0.1C388.7,213.3,389.1,212.8,389.3,212.6z M318.4,247.4c18.4,4.6,19.5,17.9,19.3,21.6c-0.8,16.6-15,18.6-20.6,18.6
		h-43.5l0-0.8c3.2-0.4,5.5-2.2,5.5-7.7l0.3-57.3c0.1-6.2-1.6-8.1-5-8.5l-0.1-0.8h32.9c6,0,24.2-1.2,25.7,15.5
		C334.1,241.2,319.5,246.8,318.4,247.4z M323.2,269.1c0.3-16.1-11.5-20.4-23.8-21.1c-0.2,0-0.2-0.6,0-0.7c4-0.2,19.8-2,19.2-17.1
		c-0.6-14.7-11.8-15.1-15.9-15.1c-3.3,0-4.1,0-5.5,0c-2.4,0.1-3,0.3-3,2.9c0,0.3-0.5,26.6-0.8,45c-0.2,10-0.2,17.8-0.2,17.8
		c0,1.8-0.2,3.7,4.3,3.9c4.7,0.2,10.7,0.4,14.9-0.5C316.4,283.3,323,280.5,323.2,269.1z M236.6,212.3c15.6-0.1,36.3,10.7,36.2,37.5
		c-0.1,23.3-16.9,37.7-32.5,37.7l-39.5,0l0-0.8c2.2-0.4,4.7-1.8,5.1-3.3c1.3-5.6,1-57,0.2-65.5c-0.2-2.6-2.3-4.3-4.9-4.8l0-0.8
		C201.3,212.3,233.1,212.4,236.6,212.3z M243.8,282.7c7-2.5,15.7-14.5,14.3-33.3c-1.4-18.2-8.3-32.5-26.8-33.9c0,0-3.5-0.3-6.4-0.3
		c-3.1,0-3.8-0.1-4.1,3.2c-0.4,6.3-0.5,55.3-0.1,62.4c0.1,1,0.2,3.3,4.2,3.7C232.2,285.2,238.3,284.7,243.8,282.7z"/>
</g>
</svg>
